<svg xmlns="http://www.w3.org/2000/svg" viewBox="0 0 24 24" fill="currentColor">
  <path d="M20 21C18.61 21 17.22 20.53 16 19.67C13.56 21.38 10.44 21.38 8 19.67C6.78 20.53 5.39 21 4 21H2V23H4C5.37 23 6.74 22.65 8 22C10.5 23.3 13.5 23.3 16 22C17.26 22.65 18.62 23 20 23H22V21H20Z"/>
  <path d="M3.95 19H4C5.6 19 7.11 18.27 8 17.05C8.89 18.27 10.4 19 12 19C13.6 19 15.11 18.27 16 17.05C16.89 18.27 18.4 19 20 19H20.05L21.95 13.95C22.17 13.34 21.97 12.66 21.44 12.27L20 11.23V6C20 5.45 19.55 5 19 5H18V3H6V5H5C4.45 5 4 5.45 4 6V11.23L2.56 12.27C2.03 12.66 1.83 13.34 2.05 13.95L3.95 19ZM6 7H18V10.26L12 14.53L6 10.26V7Z"/>
</svg>
