<svg xmlns="http://www.w3.org/2000/svg" viewBox="0 0 24 24" fill="currentColor">
  <path d="M5.5 20.5L3.5 21.5L4.5 18.5L5.5 20.5ZM8.5 21L6.5 18L9.5 19L8.5 21ZM11 18.5L10 15.5L13 17L11 18.5Z"/>
  <path d="M14 4C14 3.45 14.45 3 15 3C15.55 3 16 3.45 16 4C16 4.55 15.55 5 15 5C14.45 5 14 4.55 14 4Z"/>
  <path d="M18 6C18 5.45 18.45 5 19 5C19.55 5 20 5.45 20 6C20 6.55 19.55 7 19 7C18.45 7 18 6.55 18 6Z"/>
  <path d="M20 10C20 9.45 20.45 9 21 9C21.55 9 22 9.45 22 10C22 10.55 21.55 11 21 11C20.45 11 20 10.55 20 10Z"/>
  <path d="M6 3L17 14L14 17L3 6L6 3ZM7 5L5 7L12 14L14 12L7 5Z"/>
  <path d="M9.5 2L10.5 4L12.5 3L11.5 5L13.5 6L11.5 7L12.5 9L10.5 8L9.5 10L8.5 8L6.5 9L7.5 7L5.5 6L7.5 5L6.5 3L8.5 4L9.5 2Z"/>
</svg>
